<mxfile host="app.diagrams.net" modified="2024-07-12T00:29:03.135Z" agent="Mozilla/5.0 (Windows NT 10.0; Win64; x64) AppleWebKit/537.36 (KHTML, like Gecko) Chrome/126.0.0.0 Safari/537.36" etag="HzLGJAsa2NWIiprVUBzH" version="24.6.5" type="device">
  <diagram name="Page-1" id="G2Fz_frcj7IQoAoZ2SnD">
    <mxGraphModel dx="1626" dy="784" grid="1" gridSize="10" guides="1" tooltips="1" connect="1" arrows="1" fold="1" page="1" pageScale="1" pageWidth="850" pageHeight="1100" math="0" shadow="0">
      <root>
        <mxCell id="0" />
        <mxCell id="1" parent="0" />
        <mxCell id="1x-WTIp9X42OiKSLsdy0-1" value="Actor" style="shape=umlActor;verticalLabelPosition=bottom;verticalAlign=top;html=1;" vertex="1" parent="1">
          <mxGeometry x="247" y="360" width="30" height="50" as="geometry" />
        </mxCell>
        <mxCell id="1x-WTIp9X42OiKSLsdy0-5" value="" style="endArrow=classic;html=1;rounded=0;" edge="1" parent="1" source="1x-WTIp9X42OiKSLsdy0-1">
          <mxGeometry width="50" height="50" relative="1" as="geometry">
            <mxPoint x="237" y="420" as="sourcePoint" />
            <mxPoint x="257" y="490" as="targetPoint" />
          </mxGeometry>
        </mxCell>
        <mxCell id="1x-WTIp9X42OiKSLsdy0-6" value="Register new pet" style="ellipse;whiteSpace=wrap;html=1;" vertex="1" parent="1">
          <mxGeometry x="200" y="490" width="127" height="60" as="geometry" />
        </mxCell>
        <mxCell id="1x-WTIp9X42OiKSLsdy0-7" value="Create profile" style="ellipse;whiteSpace=wrap;html=1;" vertex="1" parent="1">
          <mxGeometry x="410" y="525" width="108" height="50" as="geometry" />
        </mxCell>
        <mxCell id="1x-WTIp9X42OiKSLsdy0-8" value="Assign pet ID" style="ellipse;whiteSpace=wrap;html=1;" vertex="1" parent="1">
          <mxGeometry x="550" y="445" width="110" height="50" as="geometry" />
        </mxCell>
        <mxCell id="1x-WTIp9X42OiKSLsdy0-9" value="Collect pet info" style="ellipse;whiteSpace=wrap;html=1;" vertex="1" parent="1">
          <mxGeometry x="680" y="400" width="100" height="40" as="geometry" />
        </mxCell>
        <mxCell id="1x-WTIp9X42OiKSLsdy0-10" value="" style="endArrow=classic;html=1;rounded=0;exitX=1;exitY=0.5;exitDx=0;exitDy=0;entryX=-0.019;entryY=0.36;entryDx=0;entryDy=0;entryPerimeter=0;" edge="1" parent="1" source="1x-WTIp9X42OiKSLsdy0-6" target="1x-WTIp9X42OiKSLsdy0-7">
          <mxGeometry width="50" height="50" relative="1" as="geometry">
            <mxPoint x="271" y="420" as="sourcePoint" />
            <mxPoint x="267" y="500" as="targetPoint" />
          </mxGeometry>
        </mxCell>
        <mxCell id="1x-WTIp9X42OiKSLsdy0-11" value="" style="endArrow=classic;html=1;rounded=0;entryX=0;entryY=0.5;entryDx=0;entryDy=0;" edge="1" parent="1" source="1x-WTIp9X42OiKSLsdy0-6" target="1x-WTIp9X42OiKSLsdy0-8">
          <mxGeometry width="50" height="50" relative="1" as="geometry">
            <mxPoint x="281" y="430" as="sourcePoint" />
            <mxPoint x="277" y="510" as="targetPoint" />
          </mxGeometry>
        </mxCell>
        <mxCell id="1x-WTIp9X42OiKSLsdy0-12" value="" style="endArrow=classic;html=1;rounded=0;entryX=0;entryY=0.5;entryDx=0;entryDy=0;exitX=1;exitY=0;exitDx=0;exitDy=0;" edge="1" parent="1" source="1x-WTIp9X42OiKSLsdy0-6" target="1x-WTIp9X42OiKSLsdy0-9">
          <mxGeometry width="50" height="50" relative="1" as="geometry">
            <mxPoint x="291" y="440" as="sourcePoint" />
            <mxPoint x="287" y="520" as="targetPoint" />
          </mxGeometry>
        </mxCell>
      </root>
    </mxGraphModel>
  </diagram>
</mxfile>
